<?xml version="1.0" encoding="utf-8"?>
<!-- Generator: Adobe Illustrator 16.0.0, SVG Export Plug-In . SVG Version: 6.00 Build 0)  -->
<!DOCTYPE svg PUBLIC "-//W3C//DTD SVG 1.1//EN" "http://www.w3.org/Graphics/SVG/1.1/DTD/svg11.dtd">
<svg version="1.1" id="Layer_1" xmlns="http://www.w3.org/2000/svg" xmlns:xlink="http://www.w3.org/1999/xlink" x="0px" y="0px"
	 width="413.171px" height="104.432px" viewBox="0 0 413.171 104.432" enable-background="new 0 0 413.171 104.432"
	 xml:space="preserve">
<g>
	<path fill="#0065A4" d="M160.77,75.754c-0.17-0.498-0.375-1.016-0.597-1.563c-0.232-0.549-0.459-1.126-0.686-1.74
		c-0.405-1.093-1.119-2.986-2.111-5.681c-1.001-2.688-2.17-5.772-3.492-9.258c-1.328-3.473-2.714-7.141-4.173-10.988
		c-1.46-3.85-2.858-7.516-4.186-11.001c-1.312-3.478-2.474-6.547-3.482-9.205c-1.01-2.652-1.716-4.538-2.11-5.638
		c-0.636-1.711-1.309-3.067-2.023-4.064c-0.718-1.024-1.429-1.796-2.115-2.341c-3.117-3.132-10.346-2.711-13.897-2.711
		c0.056,0.366,4.699,2.83,3.302,6.021c-0.054,0.146-0.183,0.471-0.346,0.883c-0.327,0.662-0.642,1.393-0.945,2.213
		c-0.397,1.101-1.117,2.984-2.146,5.638c-0.077,0.178-0.152,0.377-0.219,0.561c-0.032,0.063-0.045,0.112-0.045,0.112
		c-0.975,2.505-2.039,5.337-3.228,8.532c-1.288,3.485-2.667,7.151-4.141,11.001c-1.456,3.849-2.844,7.517-4.171,10.987
		c-1.323,3.485-2.483,6.569-3.489,9.259c-0.999,2.693-1.71,4.588-2.099,5.681c-0.295,0.613-0.54,1.191-0.739,1.74
		c-0.208,0.549-0.395,1.065-0.563,1.563c-0.226,0.55-0.427,1.099-0.607,1.651c1.732,0.482,3.35,0.632,4.916,0.451
		c1.326-0.124,2.643-0.543,3.964-1.283c1.32-0.731,2.381-2.077,3.183-4.032c0.343-0.853,0.975-2.535,1.897-5.041
		c0.914-2.5,2.013-5.437,3.276-8.795h24.453c1.271,3.358,2.361,6.295,3.276,8.795c0.918,2.504,1.553,4.188,1.9,5.041
		c0.741,1.955,1.778,3.301,3.145,4.032c1.343,0.74,2.678,1.16,4,1.283c1.552,0.181,3.193,0.031,4.914-0.451
		C161.207,76.853,161.011,76.304,160.77,75.754 M122.968,49.631c1.148-3.055,2.231-6.027,3.272-8.928
		c1.03-2.906,1.98-5.518,2.838-7.832c0.977-2.691,1.925-5.258,2.843-7.707c0.803,2.449,1.726,5.016,2.754,7.707
		c0.8,2.314,1.754,4.926,2.849,7.832c1.088,2.899,2.206,5.873,3.362,8.928H122.968z"/>
	<path fill="#0065A4" d="M234.203,75.935c-0.063-0.679-0.111-1.595-0.127-2.745c-0.041-1.16-0.053-2.668-0.053-4.498V54.49
		c0-4.089-0.563-7.434-1.682-10.028c-1.117-2.602-2.586-4.627-4.391-6.094c-1.806-1.473-3.834-2.455-6.076-2.979
		c-2.238-0.521-4.48-0.782-6.726-0.782c-1.31,0-2.676,0.095-4.082,0.273c-1.409,0.187-2.772,0.518-4.094,1.009l-0.048-0.13
		l-0.045-5.637c0-3.606-0.938-6.203-2.83-7.797c-1.897-1.59-4.631-2.384-8.188-2.384c0.062,0.371,0.113,0.929,0.169,1.66
		c0.067,0.667,0.106,1.582,0.139,2.738c0.024,1.054,0.332,31.174,0.393,38.488l-0.008,4.584c0,3.6,0.932,6.201,2.807,7.783
		c1.861,1.594,4.568,2.393,8.143,2.393c-0.073-0.371-0.131-0.922-0.176-1.654c-0.067-0.678-0.104-1.594-0.141-2.745
		c-0.021-1.16-0.041-2.668-0.041-4.498V54.49c0-2.563,0.227-4.629,0.689-6.186c0.459-1.553,1.082-2.77,1.85-3.664
		c0.785-0.887,1.646-1.475,2.586-1.779c0.957-0.315,1.91-0.462,2.881-0.462c0.984,0,1.947,0.146,2.896,0.462
		c0.943,0.308,1.812,0.894,2.578,1.779c0.787,0.896,1.406,2.111,1.892,3.664c0.485,1.557,0.737,3.624,0.737,6.186l0.086,12.923
		c0,3.601,0.951,6.202,2.843,7.784c1.887,1.593,4.629,2.392,8.178,2.392C234.313,77.217,234.246,76.667,234.203,75.935"/>
	<path fill="#0065A4" d="M272.697,68.69c0.686,0.428,1.346,1.162,1.967,2.204l0.271,0.283l-0.271,0.272
		c-1.889,2.191-4.146,3.918-6.75,5.17c-2.619,1.25-5.442,1.877-8.49,1.877c-2.646,0-5.123-0.566-7.448-1.689
		c-2.33-1.13-4.371-2.709-6.16-4.729c-1.722-1.947-3.082-4.252-4.092-6.914c-1.007-2.66-1.502-5.513-1.502-8.563
		c0-3.062,0.438-5.919,1.329-8.577c0.894-2.651,2.171-4.987,3.836-7.007c1.66-1.951,3.691-3.511,6.08-4.674
		c2.373-1.159,5.025-1.734,7.957-1.734c1.609,0,3.373,0.256,5.312,0.777c1.912,0.524,3.701,1.343,5.371,2.47
		c1.666,1.14,3.041,2.609,4.134,4.445c1.09,1.835,1.647,4.027,1.647,6.598c0,2.504-0.604,4.538-1.826,6.095
		c-1.188,1.551-2.631,2.783-4.295,3.67c-1.677,0.881-3.435,1.496-5.308,1.827c-1.858,0.341-3.494,0.503-4.854,0.503
		c-2.129,0-3.977-0.132-5.559-0.406c-1.584-0.273-2.66-0.477-3.238-0.598c0.223,2.198,0.688,3.982,1.377,5.352
		c0.693,1.385,1.471,2.459,2.32,3.259c0.865,0.797,1.727,1.333,2.594,1.604c0.854,0.275,1.645,0.41,2.322,0.41
		c1.207,0,2.356-0.119,3.449-0.355c1.088-0.252,2.063-0.524,2.932-0.829c0.854-0.313,1.674-0.608,2.445-0.917
		c0.774-0.303,1.539-0.457,2.285-0.457C271.352,68.056,272.063,68.265,272.697,68.69 M259.423,42.399
		c-0.625,0.06-1.383,0.229-2.239,0.5c-0.865,0.273-1.703,0.783-2.543,1.511c-0.82,0.737-1.584,1.773-2.276,3.119
		c-0.691,1.344-1.183,3.051-1.472,5.137c0.918,0.303,2.241,0.584,3.922,0.865c1.697,0.274,3.39,0.321,5.084,0.146
		c1.697-0.184,3.181-0.709,4.479-1.561c1.289-0.865,1.994-2.295,2.106-4.313c0.119-1.529-0.44-2.842-1.68-3.939
		C263.574,42.767,261.779,42.276,259.423,42.399"/>
	<path fill="#0065A4" d="M303.111,66.867c0.107-1.04-0.17-1.907-0.828-2.612c-0.66-0.707-1.609-1.373-2.842-2.023
		c-1.244-0.636-2.691-1.322-4.35-2.055c-1.66-0.737-3.42-1.713-5.25-2.935c-1.387-0.854-2.52-1.876-3.396-3.069
		c-0.896-1.191-1.553-2.474-1.947-3.846c-0.396-1.379-0.572-2.783-0.516-4.217c0.061-1.437,0.375-2.855,0.938-4.271
		c0.578-1.342,1.336-2.471,2.254-3.383c0.912-0.918,1.938-1.666,3.057-2.246c1.119-0.582,2.254-0.986,3.398-1.238
		c1.15-0.245,2.205-0.362,3.184-0.362h1.025c3.064,0.178,5.838,0.979,8.369,2.374c2.533,1.409,4.684,3.267,6.457,5.599l0.252,0.277
		l-0.252,0.36c-0.568,0.859-1.207,1.496-1.902,1.923c-0.623,0.427-1.346,0.645-2.15,0.645c-0.799,0-1.568-0.17-2.316-0.5
		c-0.742-0.338-1.551-0.695-2.416-1.057c-1.084-0.491-2.113-0.902-3.053-1.241c-0.949-0.336-1.914-0.502-2.895-0.502
		c-1.252,0-2.201,0.296-2.838,0.869c-0.631,0.586-1.014,1.273-1.121,2.064c-0.119,1.154,0.229,2.123,1.047,2.883
		c0.801,0.771,1.965,1.48,3.521,2.152c1.781,0.795,3.676,1.668,5.689,2.614c2.016,0.955,3.779,2.108,5.338,3.474
		c1.547,1.386,2.723,3.039,3.529,4.955c0.811,1.93,0.895,4.258,0.264,7.012c-0.287,1.103-0.787,2.244-1.48,3.433
		c-0.674,1.201-1.645,2.276-2.875,3.253c-1.232,0.979-2.729,1.789-4.475,2.429c-1.754,0.643-3.813,0.97-6.166,0.97
		c-0.449,0-0.83-0.039-1.119-0.099c-2.746-0.119-5.467-0.885-8.135-2.289c-2.664-1.401-4.906-3.269-6.676-5.586l-0.264-0.281
		l0.264-0.358c0.285-0.49,0.598-0.879,0.947-1.187c0.348-0.311,0.66-0.586,0.939-0.834c0.699-0.361,1.375-0.549,2.07-0.549
		c0.805,0,1.582,0.168,2.33,0.502c0.736,0.344,1.545,0.688,2.406,1.053c0.811,0.432,1.707,0.8,2.707,1.104
		c1.016,0.3,2.113,0.517,3.309,0.634c2.08,0,3.564-0.423,4.455-1.276C302.478,68.573,302.988,67.717,303.111,66.867"/>
	<g>
		<g>
			<g>
				<defs>
					<rect id="SVGID_1_" x="2.526" y="3.339" width="385.216" height="98.093"/>
				</defs>
				<clipPath id="SVGID_2_">
					<use xlink:href="#SVGID_1_"  overflow="visible"/>
				</clipPath>
				<path clip-path="url(#SVGID_2_)" fill="#F58220" d="M343.289,40.381c0.744-1.944,1.807-3.278,3.188-3.983
					c1.377-0.705,2.729-1.115,4.047-1.239c1.553-0.12,3.188,0.032,4.92,0.454c-3.686,9.412-6.986,17.844-9.914,25.295
					c-1.252,3.174-2.512,6.317-3.748,9.434c-1.229,3.119-2.334,5.925-3.314,8.43c-0.969,2.508-1.793,4.588-2.453,6.23
					c-0.654,1.657-1.057,2.598-1.164,2.848c-0.801,1.947-1.861,3.301-3.189,4.027c-1.311,0.739-2.641,1.156-3.967,1.28
					c-1.541,0.187-3.18,0-4.9-0.541c0.693-1.712,1.441-3.583,2.227-5.589c0.701-1.777,1.49-3.808,2.389-6.104
					c0.887-2.282,1.85-4.717,2.881-7.282c-0.168-0.429-0.531-1.314-1.066-2.655c-0.551-1.34-1.18-2.964-1.906-4.856
					c-0.725-1.896-1.516-3.953-2.412-6.186c-0.887-2.232-1.77-4.474-2.627-6.736c-2.064-5.313-4.393-11.172-6.979-17.595
					c1.723-0.422,3.367-0.575,4.912-0.454c1.332,0.124,2.66,0.534,4,1.239c1.357,0.705,2.426,2.039,3.244,3.982
					c0.104,0.313,0.406,1.086,0.896,2.338c0.482,1.255,1.09,2.82,1.809,4.715c0.719,1.9,1.543,3.992,2.449,6.275
					c0.924,2.295,1.848,4.605,2.758,6.92c1.041-2.563,2.012-5,2.93-7.33c0.916-2.32,1.742-4.397,2.465-6.229
					c0.711-1.833,1.283-3.342,1.713-4.537C342.902,41.34,343.171,40.627,343.289,40.381"/>
			</g>
		</g>
		<g>
			<g>
				<defs>
					<rect id="SVGID_3_" x="2.526" y="3.339" width="385.216" height="98.093"/>
				</defs>
				<clipPath id="SVGID_4_">
					<use xlink:href="#SVGID_3_"  overflow="visible"/>
				</clipPath>
				<path clip-path="url(#SVGID_4_)" fill="#0065A4" d="M377.083,66.867c0.107-1.04-0.168-1.907-0.834-2.612
					c-0.652-0.707-1.602-1.373-2.834-2.023c-1.236-0.636-2.688-1.322-4.342-2.055c-1.686-0.737-3.434-1.713-5.268-2.935
					c-1.377-0.854-2.512-1.876-3.406-3.069c-0.895-1.191-1.531-2.474-1.924-3.846c-0.41-1.379-0.584-2.783-0.525-4.217
					c0.063-1.437,0.381-2.855,0.943-4.271c0.576-1.342,1.32-2.471,2.25-3.383c0.914-0.918,1.928-1.666,3.055-2.246
					c1.113-0.582,2.252-0.986,3.4-1.238c1.154-0.245,2.217-0.362,3.188-0.362h1.035c3.043,0.178,5.824,0.979,8.352,2.374
					c2.529,1.409,4.676,3.267,6.465,5.599l0.254,0.277l-0.254,0.36c-0.57,0.859-1.211,1.496-1.896,1.923
					c-0.631,0.427-1.352,0.645-2.154,0.645s-1.578-0.17-2.324-0.5c-0.738-0.338-1.547-0.695-2.406-1.057
					c-1.094-0.491-2.119-0.902-3.07-1.241c-0.936-0.336-1.896-0.502-2.885-0.502c-1.258,0-2.207,0.296-2.824,0.869
					c-0.645,0.586-1.016,1.273-1.133,2.064c-0.113,1.154,0.236,2.123,1.035,2.883c0.799,0.771,1.984,1.48,3.525,2.152
					c1.783,0.795,3.672,1.668,5.693,2.614c2.002,0.955,3.791,2.108,5.334,3.474c1.551,1.386,2.729,3.039,3.529,4.955
					c0.811,1.93,0.893,4.258,0.264,7.012c-0.293,1.103-0.777,2.244-1.465,3.433c-0.689,1.201-1.648,2.276-2.875,3.253
					c-1.244,0.979-2.744,1.789-4.49,2.429c-1.748,0.643-3.799,0.97-6.148,0.97c-0.471,0-0.842-0.039-1.129-0.099
					c-2.762-0.119-5.467-0.885-8.145-2.289c-2.67-1.401-4.891-3.269-6.668-5.586l-0.27-0.281l0.27-0.358
					c0.289-0.49,0.604-0.879,0.938-1.187c0.355-0.311,0.674-0.586,0.959-0.834c0.676-0.361,1.377-0.549,2.063-0.549
					c0.813,0,1.578,0.168,2.322,0.502c0.756,0.344,1.561,0.688,2.414,1.053c0.805,0.432,1.705,0.8,2.711,1.104
					c1.006,0.3,2.113,0.517,3.316,0.634c2.064,0,3.549-0.423,4.439-1.276C376.462,68.573,376.951,67.717,377.083,66.867"/>
			</g>
		</g>
		<g>
			<g>
				<defs>
					<rect id="SVGID_5_" x="2.526" y="3.339" width="385.216" height="98.093"/>
				</defs>
				<clipPath id="SVGID_6_">
					<use xlink:href="#SVGID_5_"  overflow="visible"/>
				</clipPath>
				<path clip-path="url(#SVGID_6_)" fill="#0065A4" d="M189.132,70.156c-0.063-0.241-0.094-0.459-0.094-0.64
					c-0.526,0.181-1.063,0.364-1.629,0.557c-1.036,0.299-2.072,0.446-3.111,0.446c-2.461,0-4.469-1.028-6.023-3.106
					c-0.755-1.096-1.338-2.521-1.762-4.261c-0.434-1.75-0.653-3.896-0.653-6.461l0.09-13.009h3.272c2.633,0,4.682-0.822,6.115-2.478
					c1.438-1.651,2.149-3.854,2.149-6.596H175.95l-0.054-4.49c0-3.604-0.939-6.203-2.828-7.795c-1.899-1.589-4.626-2.383-8.19-2.383
					c0.052,0.371,0.116,0.928,0.17,1.656c0.06,0.67,0.104,1.588,0.144,2.743c0.002,0.354,0.19,3.904,0.251,8.756l-0.089,23.593
					c0,3.67,0.443,6.854,1.33,9.575c0.897,2.725,2.085,4.992,3.578,6.826c1.495,1.83,3.163,3.21,4.998,4.125
					c1.838,0.916,3.703,1.377,5.601,1.377c2.293,0,4.239-0.615,5.858-1.84c0.795-0.604,1.432-1.352,1.893-2.239
					c0.459-0.886,0.683-1.886,0.683-2.979C189.292,71.11,189.239,70.651,189.132,70.156"/>
			</g>
		</g>
		<g>
			<g>
				<defs>
					<rect id="SVGID_7_" x="2.526" y="3.339" width="385.216" height="98.093"/>
				</defs>
				<clipPath id="SVGID_8_">
					<use xlink:href="#SVGID_7_"  overflow="visible"/>
				</clipPath>
				<path clip-path="url(#SVGID_8_)" fill="#0065A4" d="M51.98,8.52c-0.233-0.936,0.881-4.41,1.255-4.788
					C48.724,3.301,43.02,3.301,38.059,3.691c-8.042,2.429-15.224,6.825-21.001,12.641c0.822,2.063,1.881,4.217,3.266,6.407
					C31.167,14.586,44.273,10.756,51.98,8.52"/>
			</g>
		</g>
	</g>
	<g>
		<path fill="#72CDF4" d="M15.848,17.597c0.201-0.216,0.403-0.423,0.6-0.632C16.251,17.174,16.049,17.381,15.848,17.597"/>
		<path fill="#72CDF4" d="M14.458,19.165c0.186-0.215,0.375-0.435,0.556-0.646C14.833,18.731,14.644,18.95,14.458,19.165"/>
		<path fill="#72CDF4" d="M13.627,20.156L13.627,20.156c0.002-0.003,0.018-0.007,0.026-0.024
			C13.646,20.143,13.63,20.149,13.627,20.156"/>
		<path fill="#0065A4" d="M65.841,47.827c-3.076-0.935-6.091-1.986-9.007-3.106c-1.591,3.09-3.356,6.176-5.285,9.163
			c10.563,3.686,23.634,6.521,38.165,5.923c0.475-2.798,1.826-29.523-20.346-49.526c0,0-0.992,4.681-3.197,11.586
			c1.583,0.563,3.192,1.078,4.845,1.563C70.126,29.521,68.536,38.304,65.841,47.827"/>
		<path fill="#0065A4" d="M52.24,42.872c1.501,0.625,3.032,1.252,4.594,1.849c4.259-8.246,7.311-16.492,9.337-22.854
			c-2.007-0.7-3.97-1.458-5.872-2.27c-1.677,3.088-3.522,6.505-5.451,10.146c0.966,0.521,1.995,1.027,3.064,1.514
			C56.129,34.906,54.229,38.808,52.24,42.872"/>
		<path fill="#015078" d="M65.841,47.827c2.695-9.521,4.285-18.307,5.175-24.397c-1.653-0.485-3.261-1.001-4.845-1.563
			c-2.026,6.362-5.078,14.612-9.337,22.854C59.75,45.84,62.765,46.893,65.841,47.827"/>
		<path fill="#0065A4" d="M41.243,65.43c3.787-7.821,7.512-15.457,10.997-22.558c-1.181-0.5-2.339-1-3.475-1.5
			c2.076-4.041,4.115-7.953,6.083-11.63c-6.56-3.465-11.132-7.479-15.598-12.112c-4.758,3.039-9.599,6.791-14.154,11.361
			c1.415,1.561,2.994,3.123,4.792,4.672c-5.293,5.998-10.227,13.063-13.791,21.151c4.382,4.604,9.658,9.021,16.617,13.136
			c0.63-1.887,1.277-3.753,1.926-5.542C36.727,63.454,38.941,64.465,41.243,65.43"/>
		<path fill="#015078" d="M52.24,42.872c1.989-4.063,3.889-7.966,5.673-11.617c-1.07-0.485-2.098-0.993-3.064-1.514
			c-1.968,3.678-4.007,7.588-6.083,11.631C49.9,41.87,51.059,42.372,52.24,42.872"/>
		<path fill="#0065A4" d="M81.03,75.271c-17.485-1.314-26.155-4.575-36.752-8.625c-0.018,0.01-0.021,0.022-0.04,0.041
			c0.018-0.019,0.021-0.031,0.04-0.041c-1.037-0.402-2.047-0.814-3.048-1.216c-0.914,1.881-1.827,3.763-2.749,5.664
			c-2.05-1.025-3.968-2.071-5.767-3.146c-2.615,7.776-5.044,16.285-6.627,24.771c-0.098,0.388-0.177,0.759-0.24,1.107
			c6.845,4.328,14.811,7.043,23.368,7.604c2.776-0.589,4.682-1.124,4.799-1.124C67.484,96.329,74.446,87.213,81.03,75.271"/>
		<path fill="#015078" d="M41.243,65.43c-2.301-0.965-4.516-1.977-6.603-3.021c-0.649,1.789-1.295,3.655-1.926,5.542
			c1.799,1.073,3.717,2.119,5.767,3.146C39.397,69.195,40.316,67.306,41.243,65.43"/>
		<path fill="#F58220" d="M93.323,68.743C89.263,82.24,79.652,93.339,67.135,99.37c15.732-4.798,28.151-17.142,33.08-32.813
			C98.182,67.481,95.79,68.34,93.323,68.743"/>
		<path fill="#009DDC" d="M13.646,20.127c0.27-0.326,0.548-0.644,0.813-0.965C14.193,19.486,13.915,19.802,13.646,20.127"/>
		<path fill="#009DDC" d="M15.014,18.519c0.281-0.314,0.556-0.617,0.834-0.922C15.57,17.902,15.295,18.204,15.014,18.519"/>
		<path fill="#009DDC" d="M2.583,53.782c0-0.113-0.016-0.244-0.016-0.367C2.567,53.538,2.583,53.668,2.583,53.782"/>
		<path fill="#009DDC" d="M2.583,49.517c0.024-0.597,0.067-1.194,0.107-1.782C2.65,48.323,2.607,48.92,2.583,49.517"/>
		<path fill="#009DDC" d="M17.058,16.321c-0.211,0.212-0.406,0.429-0.606,0.646c0.2-0.215,0.407-0.426,0.606-0.633V16.321z"/>
		<path fill="#0065A4" d="M25.096,28.99c-1.901-2.098-3.48-4.192-4.764-6.252c-2.159,1.621-4.226,3.409-6.135,5.39
			c-0.614-2.562-0.819-5.444-0.569-7.972C7.446,27.816,3.478,37.322,2.69,47.727c0.999,1.229,2.104,2.516,3.322,3.843
			C5.604,54.112,5.4,56.715,5.4,59.374c0,1.338,0.056,2.668,0.164,3.979c1.645,2.343,3.572,4.648,5.825,6.902
			c0.959-5.506,2.592-10.655,4.708-15.44c-1.895-1.982-3.615-4-5.232-6.044C14.799,40.877,19.751,34.362,25.096,28.99"/>
		<path fill="#015078" d="M14.197,28.127c1.913-1.979,3.976-3.769,6.127-5.39c-1.384-2.19-2.443-4.345-3.262-6.409
			c-0.202,0.211-0.408,0.42-0.609,0.637c-0.201,0.207-0.403,0.416-0.604,0.631c-0.278,0.305-0.553,0.607-0.834,0.922
			c-0.181,0.214-0.37,0.432-0.556,0.642c-0.265,0.325-0.543,0.639-0.805,0.967c-0.008,0.021-0.023,0.025-0.026,0.028
			C13.377,22.683,13.583,25.565,14.197,28.127"/>
		<path fill="#015078" d="M25.096,28.99c-5.344,5.371-10.297,11.888-14.231,19.778c1.617,2.044,3.338,4.063,5.232,6.044
			c3.564-8.089,8.494-15.154,13.791-21.151C28.09,32.114,26.511,30.549,25.096,28.99"/>
		<path fill="#0065A4" d="M67.9,7.548c0.869,0.35,1.679,0.744,2.442,1.16l3.05-2.575c-2.442-1.132-4.995-2.063-7.641-2.794
			l0.065,3.479C66.507,7.027,67.204,7.273,67.9,7.548"/>
		<path fill="#72CDF4" d="M2.526,51.549c0-0.68,0.026-1.356,0.044-2.032C2.547,50.193,2.526,50.87,2.526,51.549"/>
		<path fill="#72CDF4" d="M2.567,53.418c-0.021-0.617-0.042-1.235-0.042-1.869C2.526,52.183,2.547,52.799,2.567,53.418"/>
		<path fill="#0065A4" d="M2.583,53.782c0.299,6.723,1.913,13.096,4.616,18.86c-0.829-2.99-1.386-6.1-1.635-9.292
			c-0.869-1.245-1.677-2.5-2.387-3.759C2.875,57.689,2.67,55.752,2.583,53.782"/>
		<path fill="#72CDF4" d="M2.69,47.727v0.011V47.727z"/>
		<path fill="#015078" d="M6.012,51.57c-1.218-1.327-2.324-2.613-3.322-3.846v0.01c-0.04,0.588-0.083,1.184-0.12,1.782
			c-0.018,0.674-0.044,1.354-0.044,2.033c0,0.628,0.017,1.25,0.042,1.865c0,0.123,0.002,0.254,0.016,0.365
			c0.087,1.975,0.287,3.907,0.594,5.807c0.71,1.265,1.519,2.523,2.387,3.765c-0.109-1.31-0.165-2.64-0.165-3.978
			C5.4,56.717,5.604,54.112,6.012,51.57"/>
	</g>
	<rect x="390" y="60.835" fill="none" width="22.172" height="29"/>
	<text transform="matrix(1 0 0 1 389.9995 79.0754)" fill="#0065A4" font-family="'OpenSans-Regular'" font-size="24">®</text>
</g>
</svg>
